<?xml version="1.0" encoding="UTF-8" standalone="no"?>
<svg
	xmlns:dc="http://purl.org/dc/elements/1.1/"
	xmlns:cc="http://creativecommons.org/ns#"
	xmlns:rdf="http://www.w3.org/1999/02/22-rdf-syntax-ns#"
	xmlns:svg="http://www.w3.org/2000/svg"
	xmlns="http://www.w3.org/2000/svg"
	xmlns:xlink="http://www.w3.org/1999/xlink"
	id="sharingan"
	width="1000"
	height="1075">
	<style
		type="text/css"
		id="style">
			text{font-size:50px;font-family:Arial;}
			.b{fill:#000;}
			.r{fill:#a00000;}
			.n{fill:none;}
			.l{stroke:#000;}
	</style>
	<defs
		id="defs">
		<radialGradient
			id="gr">
			<stop
				offset="0"
				style="stop-color:#660000; stop-opacity: 1;"
				id="st1" />
			<stop
				style="stop-color:#c30000; stop-opacity: 1;"
				offset="0.5"
				id="st2"/>
			<stop
				style="stop-color:#a00000; stop-opacity: 1;"
				offset="1"
				id="st3"/>
		</radialGradient>
	</defs>
	<rect
		class="l"
		style="fill:#5abfff;stroke-width:10;"
		x="5"
		y="5"
		width="990"
		height="240" />
	<rect
		class="n l"
		style="stroke-width:10;"
		x="5"
		y="245"
		width="990"
		height="825" />
	<g
		id="raw1">
		<circle
			class="l"
			style="fill: url(#gr); stroke-width:10;"
			cx="170"
			cy="420"
			r="145"
			id="iris1" />
		<use
			xlink:href="#iris1"
			transform="translate(330,0)"
			id="iris3" />
		<use
			xlink:href="#iris1"
			transform="translate(660,0)"
			id="iris3" />
	</g>
	<use
		xlink:href="#raw1"
		transform="translate(0,400)"
		id="raw2" />
	<g
		id="itachi"
		transform="translate(20,270)" >
		<path
			class="b"
			d="M 177.6,10.7 C 135,68.4 155.4,100.7 179.8,118.5 C 260.9,160.6 274.8,214.5 255.9,244.9 C 237.3,191.9 198,172.4 158.5,194.9 C 86.9,238.6 40.7,231.2 15.7,196.6 C 58.2,203.1 109.1,193.5 107.9,128.3 C 109.5,97.6 111.5,16.6 177.6,10.7 z"
			id="itachi tomoe"/>
		<circle
			class="r"
			cx="150"
			cy="150"
			r="20"
			id="itachi center"/>
	</g>
	<g
		id="izuna"
		transform="translate(350,270)">
		<circle
			class="b"
			cx="150"
			cy="150"
			r="95"
			id="izuna tomoe center"/>
		<circle
			class="r"
			cx="150"
			cy="150"
			r="18"
			id="izuna center"/>
		<path
			class="b"
			d="M 115,65 L 115,10 L 150,5 L 185,10 L 185,65 L 115,65 z"
			id="izuna tomoe 1" />
		<use
			xlink:href="#izuna tomoe 1"
			transform="rotate(120 150 150)"
			id="izuna tomoe 2" />
		<use
			xlink:href="#izuna tomoe 1"
			transform="rotate(-120 150 150)"
			id="izuna tomoe 3" />
	</g>
	<g
		id="kakashi"
		transform="translate(680,270)">
		<g
			id="kakashi tomoe 1">
			<path
				class="b"
				d="M 107.5,150 C 110,100 130,20 150,0 C 170,20 190,100 192.5,150 C 168,150 132,150 107.5,150 z"
				id="kakashi tomoe 1a" />
			<path
				class="b"
				d="M 250.2,181.2 C 261.8,142 250.4,46.8 157.4,10 C 154.9,31.7 161.1,51.3 178.8,67.3 C 216.6,76 258.3,118.6 244.6,175.2 C 224.9,193.2 242.3,203.3 250.2,181.2 z"
				id="kakashi tomoe 1b" />
		</g>
		<use
			xlink:href="#kakashi tomoe 1"
			transform="rotate(120 150 150)"
			id="kakashi tomoe 2" />
		<use
			xlink:href="#kakashi tomoe 1"
			transform="rotate(-120 150 150)"
			id="kakashi tomoe 3" />
		<circle
			class="r"
			cx="150"
			cy="150"
			r="28"
			id="kakashi center"/>
	</g>
	<g
		id="madara"
		transform="translate(20,670)">
		<g
			id="madara tomoe 1">
			<circle
				class="n l"
				style="stroke-width:15;"
				cx="150"
				cy="60"
				r="30"
				id="madara tomoe 1a" />
			<path
				class="b"
				d="M 151.1 24.6 L 174.1 43.1 L 180 82.5 C 240.9 62.8 255 166.9 244.1 161.2 C 255 183.2 264.5 185 262.9 181.9 C 260.5 177.2 260.8 175.4 260.8 171 C 264.9 103.6 227 34 151.1 24.6 z"
				id="madara tomoe 1b" />
		</g>
		<use
			xlink:href="#madara tomoe 1"
			transform="rotate(120 150 150)"
			id="madara tomoe 2" />
		<use
			xlink:href="#madara tomoe 1"
			transform="rotate(-120 150 150)"
			id="madara tomoe 3" />
		<circle
			class="b"
			cx="150"
			cy="150"
			r="28"
			id="madara center"/>
	</g>
	<g
		id="sasuke"
		transform="translate(350,670)">
		<g
			id="sasuke tomoe 1">
			<path
				class="n l"
				style="stroke-width: 5;"
				d="M200,150 C 200,215 170,275 150,295 C 130,275 100,215 100,150 C 100,85 130,25 150,5 C 170,25 200,85 200,150 z"
				id="sasuke tomoe 1a" />
			<path
				class="b"
				d="M 275,77.5 C 260,40 200,0 150,5 C 170,30 183.4,55.1 190,80 C 215,75 244.2,71.7 275,77.5 z"
				id="sasuke tomoe 1b" />
			<use
				xlink:href="#sasuke tomoe 1b"
				transform="rotate(180 150 150)"
				id="sasuke tomoe 1c" />
		</g>
		<use
			xlink:href="#sasuke tomoe 1"
			transform="rotate(120 150 150)"
			id="sasuke tomoe 2" />
		<use
			xlink:href="#sasuke tomoe 1"
			transform="rotate(-120 150 150)"
			id="sasuke tomoe 3" />
		<circle
			class="b"
			cx="150"
			cy="150"
			r="20"
			id="sasuke center"/>
	</g>
	<g
		id="shisui"
		transform="translate(680,670)">
		<path
			class="b"
			d="m 72,135 c -26.4,-1.9 -42.4,-5 -59.2,-9.9 39.1,43.2 79,76.5 123.2,102.7 -1.9,26.4 -5,42.4 -9.9,59.2 43.2,-39.1 76.5,-79 102.7,-123.2 26.4,1.9 42.4,5 59.2,9.9 -39.1,-43.2 -79,-76.5 -123.2,-102.7 1.9,-26.4 5,-42.4 9.9,-59.2 -43.2,39.1 -76.5,79 -102.7,123.2 z"
			id="shisui tomoe" />
		<circle
			class="b"
			style="stroke:#a00000; stroke-width:20;"
			cx="150"
			cy="150"
			r="22"
			id="shisui center"/>
	</g>
	<text
		style="font-size:100px;font-weight:bold;"
		id="t0">
		<tspan
			x="230"
			y="100"
			id="ts4a">Mangekyō</tspan>
		<tspan
			x="235"
			y="210"
			id="ts4a">sharingan</tspan>
	</text>
	<text
		x="110"
		y="630"
		id="t1">Itachi
	</text>
	<text
		x="440"
		y="630"
		id="t2">Izuna
	</text>
	<text
		x="740"
		y="630"
		id="t3">Kakashi
	</text>
	<text
		x="85"
		y="1030"
		id="t4">Madara
	</text>
	<text
		x="415"
		y="1030"
		id="t5">Sasuke
	</text>
	<text
		x="755"
		y="1030"
		id="t6">Shisui
	</text>
</svg>